<svg width="282" height="71" viewBox="0 0 282 71" fill="none" xmlns="http://www.w3.org/2000/svg">
<path d="M128.394 51H122.817V30.2213L131.275 22.6821C134.401 23.7241 136.853 25.7468 137.772 29.2406L132.378 32.244C132.44 30.0374 130.785 28.3825 128.946 27.647L128.394 28.1373V51ZM150.928 17.4721L151.602 17.2883C152.154 17.9625 152.46 19.2497 152.46 20.7207C152.46 22.2531 152.154 23.908 151.48 25.2565C150.928 26.2985 150.07 27.1566 149.089 27.9534H152.031V39.538C152.154 43.3995 152.889 46.0352 155.096 45.8513L158.222 43.4608L159.203 44.9319L152.031 51C149.825 49.958 148.292 48.3031 147.373 45.9739L141.856 51C138.914 49.6515 135.85 46.1578 135.85 40.4574V37.6992C135.85 25.7468 150.499 23.9693 150.928 17.4721ZM146.331 39.538V29.9761C143.879 31.7537 141.489 33.8377 141.489 37.5153V40.4574C141.673 43.5834 142.592 45.4222 144.492 45.4835L146.699 43.7673C146.454 42.4801 146.331 41.0704 146.331 39.538ZM156.456 30.2213L165.16 22.437C167.428 23.1725 169.144 24.6436 170.248 26.7888L175.09 22.437C179.871 23.9693 181.893 28.5051 181.893 35.8604V57.6198L176.377 53.1453V36.2894C176.377 32.244 175.58 28.8728 172.515 27.647L171.106 28.8728C171.657 30.8343 171.964 33.1634 171.964 35.8604V50.5709L166.447 46.0352V36.2894C166.447 32.244 165.651 28.8728 162.586 27.647L162.034 28.1373V51H156.456V30.2213ZM199.113 17.4721L199.787 17.2883C200.339 17.9625 200.646 19.2497 200.646 20.7207C200.646 22.2531 200.339 23.908 199.665 25.2565C199.113 26.2985 198.255 27.1566 197.274 27.9534H200.217V39.538C200.339 43.3995 201.075 46.0352 203.281 45.8513L206.407 43.4608L207.388 44.9319L200.217 51C198.01 49.958 196.478 48.3031 195.558 45.9739L190.042 51C187.1 49.6515 184.035 46.1578 184.035 40.4574V37.6992C184.035 25.7468 198.684 23.9693 199.113 17.4721ZM194.516 39.538V29.9761C192.064 31.7537 189.674 33.8377 189.674 37.5153V40.4574C189.858 43.5834 190.777 45.4222 192.677 45.4835L194.884 43.7673C194.639 42.4801 194.516 41.0704 194.516 39.538ZM220.272 51C218.188 50.0806 216.778 48.3031 215.92 46.1578L210.219 51C206.297 49.1612 204.642 45.2384 204.642 39.538V34.941C204.642 27.4018 206.542 24.1532 211.323 22.4983L214.755 25.3178V9.38133L220.21 5.70369V38.8638C220.21 43.0318 221.13 46.0352 223.398 45.8513L226.524 43.4608L227.566 44.9319L220.272 51ZM215.246 43.9512C214.878 42.5414 214.755 41.0091 214.755 39.538V28.2599L213.652 27.5857C211.261 27.9534 210.219 30.773 210.219 34.4506V38.8638C210.219 43.0318 210.894 45.2997 213.284 45.4835L215.246 43.9512ZM206.419 16.614L209.913 13.059L213.468 16.614L209.913 20.1078L206.419 16.614ZM224.874 3.86487L230.267 0.0646377V25.6856L233.884 22.437C238.665 23.9693 240.504 28.5051 240.504 35.8604V57.9875L235.171 53.5131V36.2894C235.171 32.244 234.497 28.0147 231.309 27.647L230.267 28.5664V51H224.874V3.86487ZM258.193 17.4721L258.867 17.2883C259.418 17.9625 259.725 19.2497 259.725 20.7207C259.725 22.2531 259.418 23.908 258.744 25.2565C258.193 26.2985 257.334 27.1566 256.354 27.9534H259.296V39.538C259.418 43.3995 260.154 46.0352 262.361 45.8513L265.487 43.4608L266.467 44.9319L259.296 51C257.089 49.958 255.557 48.3031 254.638 45.9739L249.121 51C246.179 49.6515 243.114 46.1578 243.114 40.4574V37.6992C243.114 25.7468 257.764 23.9693 258.193 17.4721ZM253.596 39.538V29.9761C251.144 31.7537 248.753 33.8377 248.753 37.5153V40.4574C248.937 43.5834 249.857 45.4222 251.757 45.4835L253.963 43.7673C253.718 42.4801 253.596 41.0704 253.596 39.538ZM263.721 30.773L272.363 23.2338C277.144 24.8274 279.719 28.5051 279.719 35.8604V57.9875L274.386 53.5131V36.2894C274.386 32.244 273.528 29.118 270.525 27.9534L269.299 29.0567V51H263.721V30.773Z" fill="#FEF785"/>
<path d="M99.0544 19.8085C99.0544 21.8658 97.3773 23.5429 95.3102 23.5429C93.2431 23.5429 91.5758 21.8658 91.5758 19.8085C91.5758 17.7512 93.2529 16.0741 95.3102 16.0741C97.3675 16.0741 99.0544 17.7414 99.0544 19.8085Z" fill="#EE2726"/>
<path d="M107.284 23.5137V23.5624H104.437C104.134 16.8834 98.6253 11.5597 91.8781 11.5597C91.7806 11.5597 91.6733 11.5597 91.5758 11.5597V8.59555C91.8391 8.5858 92.1023 8.57605 92.3558 8.57605C100.605 8.57605 107.284 15.2648 107.284 23.5039V23.5137Z" fill="#E5C01A"/>
<path d="M113.797 22.1486C113.797 22.6166 113.787 23.0846 113.748 23.5429H109.77C109.78 23.3772 109.78 23.2211 109.78 23.0554C109.78 13.2075 101.794 5.22192 91.9561 5.22192C91.8293 5.22192 91.7026 5.22192 91.5758 5.23167V1.02925C91.9268 1.00975 92.2876 1 92.6483 1C104.329 1 113.797 10.4676 113.797 22.1486Z" fill="#029CE0"/>
<path d="M0.405363 61.6435L1.78953 54.7227H4.58752C5.29279 54.7227 5.89589 54.8414 6.39682 55.0786C6.89776 55.3093 7.28005 55.6389 7.5437 56.0673C7.81394 56.4958 7.94907 57 7.94907 57.58C7.94907 58.193 7.84361 58.75 7.63268 59.2509C7.42836 59.7518 7.13504 60.1803 6.75275 60.5362C6.37705 60.8855 5.92555 61.1591 5.39825 61.3568C4.87094 61.548 4.28432 61.6435 3.63838 61.6435H0.405363ZM1.90817 60.556H3.67793C4.2975 60.556 4.8281 60.4307 5.26972 60.1803C5.71792 59.9232 6.06067 59.5772 6.29795 59.1422C6.53524 58.7071 6.65388 58.2128 6.65388 57.6591C6.65388 57.2834 6.57149 56.9572 6.40671 56.6803C6.24193 56.4035 5.99476 56.1893 5.66519 56.0377C5.34222 55.8861 4.93686 55.8103 4.4491 55.8103H2.85731L1.90817 60.556ZM14.7665 61.7424C14.0678 61.7424 13.4713 61.6172 12.9769 61.3667C12.4826 61.1162 12.1036 60.7702 11.8399 60.3286C11.5829 59.8804 11.4544 59.3663 11.4544 58.7862C11.4544 58.1996 11.5532 57.6558 11.751 57.1549C11.9487 56.6474 12.2354 56.2057 12.6111 55.83C12.9868 55.4543 13.435 55.161 13.9557 54.9501C14.4765 54.7326 15.0565 54.6238 15.6958 54.6238C16.3879 54.6238 16.9811 54.7491 17.4755 54.9995C17.9698 55.25 18.3488 55.5993 18.6125 56.0476C18.8761 56.4892 19.0079 57 19.0079 57.58C19.0079 58.1666 18.9058 58.7137 18.7015 59.2212C18.5037 59.7222 18.217 60.1605 17.8413 60.5362C17.4656 60.9119 17.0174 61.2085 16.4967 61.426C15.9826 61.6369 15.4058 61.7424 14.7665 61.7424ZM14.8752 60.6153C15.3102 60.6153 15.7024 60.5395 16.0518 60.3879C16.4011 60.2297 16.6977 60.0155 16.9416 59.7453C17.1921 59.4684 17.3832 59.152 17.515 58.7961C17.6468 58.4336 17.7128 58.0546 17.7128 57.6591C17.7128 57.2834 17.6304 56.9506 17.4656 56.6605C17.3008 56.3705 17.0602 56.1464 16.7438 55.9882C16.4275 55.83 16.0386 55.7509 15.5772 55.7509C15.1488 55.7509 14.7566 55.83 14.4007 55.9882C14.0513 56.1398 13.7514 56.354 13.5009 56.6309C13.2571 56.9011 13.0692 57.2175 12.9374 57.58C12.8122 57.936 12.7495 58.3117 12.7495 58.7071C12.7495 59.0828 12.8286 59.4157 12.9868 59.7057C13.1516 59.9957 13.3922 60.2198 13.7086 60.378C14.0249 60.5362 14.4138 60.6153 14.8752 60.6153ZM23.7652 61.6435L24.9318 55.8103H22.6381L22.8556 54.7227H28.7185L28.501 55.8103H26.2072L25.0505 61.6435H23.7652ZM31.0412 61.6435L32.4254 54.7227H33.4833L36.6372 60.0913L36.2318 60.0419L37.2897 54.7227H38.5652L37.181 61.6435H36.1231L32.9791 56.275L33.3844 56.3244L32.3166 61.6435H31.0412ZM43.765 57.5998H47.2156L47.0079 58.6577H43.5574L43.765 57.5998ZM43.2707 60.5659H47.1859L46.9684 61.6435H41.7778L43.1619 54.7227H48.2141L47.9966 55.8004H44.2198L43.2707 60.5659ZM52.5376 61.6435L53.7042 55.8103H51.4105L51.628 54.7227H57.4909L57.2734 55.8103H54.9796L53.8229 61.6435H52.5376Z" fill="white"/>
<path d="M3.38211 48.7149L8.22425 24.3215H13.6602L12.2898 31.2649L11.7873 29.255C12.9141 27.2755 14.3455 25.9203 16.0813 25.1894C17.8172 24.428 19.9337 24.0474 22.4309 24.0474L21.3803 29.4834C21.1366 29.4225 20.9082 29.392 20.6951 29.392C20.4819 29.3615 20.2382 29.3463 19.9642 29.3463C17.741 29.3463 15.8986 29.9402 14.4368 31.1279C12.975 32.2851 12.0005 34.1428 11.5133 36.7009L9.09218 48.7149H3.38211ZM34.178 49.0347C31.8026 49.0347 29.7165 48.5931 27.9197 47.7099C26.1534 46.7963 24.783 45.5477 23.8085 43.9641C22.8339 42.3501 22.3467 40.4619 22.3467 38.2997C22.3467 35.5589 22.971 33.1226 24.2196 30.9908C25.4682 28.8286 27.1736 27.1384 29.3358 25.9203C31.5285 24.6717 34.0257 24.0474 36.8274 24.0474C39.2333 24.0474 41.3194 24.489 43.0857 25.3721C44.8824 26.2248 46.2681 27.4582 47.2426 29.0722C48.2171 30.6558 48.7044 32.544 48.7044 34.7366C48.7044 37.447 48.0801 39.8833 46.8315 42.0455C45.5829 44.2077 43.8622 45.9131 41.6696 47.1617C39.5074 48.4104 37.0102 49.0347 34.178 49.0347ZM34.5434 44.1468C36.1879 44.1468 37.6345 43.7662 38.8831 43.0048C40.1317 42.213 41.1214 41.1319 41.8523 39.7615C42.5832 38.3911 42.9486 36.8075 42.9486 35.0107C42.9486 33.1226 42.3852 31.6304 41.2585 30.534C40.1317 29.4377 38.5481 28.8895 36.5077 28.8895C34.8936 28.8895 33.4471 29.2854 32.168 30.0772C30.9194 30.8386 29.9297 31.9044 29.1988 33.2749C28.4679 34.6453 28.1024 36.2289 28.1024 38.0256C28.1024 39.9442 28.6658 41.4517 29.7926 42.548C30.9194 43.6139 32.503 44.1468 34.5434 44.1468ZM63.6205 49.0347C61.2451 49.0347 59.1591 48.5931 57.3623 47.7099C55.596 46.7963 54.2256 45.5477 53.251 43.9641C52.2765 42.3501 51.7893 40.4619 51.7893 38.2997C51.7893 35.5589 52.4136 33.1226 53.6622 30.9908C54.9108 28.8286 56.6162 27.1384 58.7784 25.9203C60.9711 24.6717 63.4683 24.0474 66.27 24.0474C68.6758 24.0474 70.7619 24.489 72.5282 25.3721C74.325 26.2248 75.7107 27.4582 76.6852 29.0722C77.6597 30.6558 78.147 32.544 78.147 34.7366C78.147 37.447 77.5227 39.8833 76.274 42.0455C75.0254 44.2077 73.3048 45.9131 71.1121 47.1617C68.9499 48.4104 66.4527 49.0347 63.6205 49.0347ZM63.986 44.1468C65.6305 44.1468 67.077 43.7662 68.3256 43.0048C69.5742 42.213 70.564 41.1319 71.2949 39.7615C72.0258 38.3911 72.3912 36.8075 72.3912 35.0107C72.3912 33.1226 71.8278 31.6304 70.701 30.534C69.5742 29.4377 67.9906 28.8895 65.9502 28.8895C64.3362 28.8895 62.8896 29.2854 61.6106 30.0772C60.362 30.8386 59.3722 31.9044 58.6413 33.2749C57.9105 34.6453 57.545 36.2289 57.545 38.0256C57.545 39.9442 58.1084 41.4517 59.2352 42.548C60.362 43.6139 61.9456 44.1468 63.986 44.1468ZM76.7744 48.7149L90.4786 34.5996L89.839 37.5688L82.3931 24.3215H88.3316L93.7219 34.0971L91.0724 34.0514L100.391 24.3215H106.787L93.6762 37.9343L94.133 34.7823L102.036 48.7149H96.0059L90.3872 38.5281H92.991L83.3524 48.7149H76.7744Z" fill="white"/>
</svg>
