<svg width="29" height="29" viewBox="0 0 29 29" fill="none" xmlns="http://www.w3.org/2000/svg">
<path d="M7.35876 12.3552C8.1847 11.2367 9.26041 10.3266 10.5002 9.69725C11.74 9.06791 13.1096 8.73677 14.5 8.73022C15.8905 8.7363 17.2603 9.06723 18.5001 9.69661C19.74 10.326 20.8157 11.2364 21.6413 12.3552M9.91439 14.2765C10.4352 13.5418 11.1218 12.9402 11.9185 12.5204C12.7152 12.1005 13.5996 11.8742 14.5 11.8598C15.4004 11.8742 16.2848 12.1005 17.0815 12.5204C17.8782 12.9402 18.5648 13.5418 19.0856 14.2765M12.2948 16.0588C12.5514 15.7161 12.8843 15.438 13.267 15.2465C13.6498 15.0549 14.072 14.9552 14.5 14.9552C14.9281 14.9552 15.3502 15.0549 15.733 15.2465C16.1158 15.438 16.4486 15.7161 16.7052 16.0588" stroke="white" stroke-linecap="round" stroke-linejoin="round"/>
<path d="M14.5 26.2813C15.5211 26.2813 23.7136 21.5869 23.7136 16.0467V3.96334C21.2969 3.96334 14.5 2.755 14.5 2.755C14.5 2.755 7.69712 3.96334 5.2865 3.96334V16.0467C5.2865 21.5869 13.479 26.2813 14.5 26.2813Z" stroke="white" stroke-linecap="round" stroke-linejoin="round"/>
</svg>
