<svg width="145" height="80" viewBox="0 0 145 80" fill="none" xmlns="http://www.w3.org/2000/svg">
<path d="M125.684 23.8649C125.684 26.4753 123.556 28.6033 120.933 28.6033C118.31 28.6033 116.195 26.4753 116.195 23.8649C116.195 21.2545 118.323 19.1266 120.933 19.1266C123.543 19.1266 125.684 21.2421 125.684 23.8649Z" fill="#EE2726"/>
<path d="M136.125 28.5662V28.628H132.513C132.129 20.1534 125.139 13.3985 116.578 13.3985C116.455 13.3985 116.318 13.3985 116.195 13.3985V9.63752C116.529 9.62515 116.863 9.61278 117.184 9.61278C127.651 9.61278 136.125 18.0997 136.125 28.5538V28.5662Z" fill="#E5C01A"/>
<path d="M144.39 26.8341C144.39 27.428 144.377 28.0218 144.328 28.6033H139.28C139.293 28.393 139.293 28.195 139.293 27.9847C139.293 15.4893 129.16 5.35693 116.677 5.35693C116.516 5.35693 116.356 5.35693 116.195 5.3693V0.037115C116.64 0.0123717 117.098 0 117.556 0C132.377 0 144.39 12.0129 144.39 26.8341Z" fill="#029CE0"/>
<path d="M0.514339 76.2584L2.27062 67.477H5.82082C6.71568 67.477 7.48092 67.6275 8.11653 67.9286C8.75213 68.2213 9.2372 68.6395 9.57173 69.1831C9.91462 69.7267 10.0861 70.3665 10.0861 71.1025C10.0861 71.8803 9.95226 72.587 9.68463 73.2226C9.42537 73.8582 9.05321 74.4018 8.56814 74.8534C8.09144 75.2966 7.51856 75.6437 6.8495 75.8946C6.18044 76.1371 5.43611 76.2584 4.61651 76.2584H0.514339ZM2.42116 74.8785H4.66669C5.45283 74.8785 6.12608 74.7196 6.68641 74.4018C7.25511 74.0756 7.69 73.6365 7.99108 73.0846C8.29216 72.5326 8.44269 71.9053 8.44269 71.2028C8.44269 70.7261 8.33815 70.3121 8.12907 69.9609C7.91999 69.6096 7.60637 69.3378 7.18821 69.1455C6.77841 68.9531 6.26407 68.8569 5.64519 68.8569H3.62547L2.42116 74.8785ZM18.7362 76.3839C17.8497 76.3839 17.0929 76.225 16.4656 75.9072C15.8384 75.5894 15.3575 75.1503 15.023 74.5899C14.6968 74.0212 14.5337 73.3689 14.5337 72.6329C14.5337 71.8886 14.6592 71.1987 14.9101 70.563C15.161 69.9191 15.5248 69.3587 16.0015 68.882C16.4782 68.4053 17.0469 68.0332 17.7076 67.7655C18.3683 67.4896 19.1042 67.3516 19.9155 67.3516C20.7936 67.3516 21.5463 67.5105 22.1735 67.8283C22.8008 68.1461 23.2817 68.5893 23.6162 69.158C23.9507 69.7184 24.118 70.3665 24.118 71.1025C24.118 71.8468 23.9884 72.541 23.7291 73.1849C23.4782 73.8205 23.1144 74.3767 22.6377 74.8534C22.161 75.3301 21.5923 75.7064 20.9316 75.9824C20.2793 76.2501 19.5475 76.3839 18.7362 76.3839ZM18.8742 74.9537C19.4262 74.9537 19.9238 74.8576 20.3671 74.6652C20.8103 74.4645 21.1867 74.1927 21.4961 73.8498C21.8139 73.4985 22.0565 73.0971 22.2237 72.6455C22.391 72.1855 22.4746 71.7046 22.4746 71.2028C22.4746 70.7261 22.3701 70.3038 22.161 69.9358C21.9519 69.5678 21.6467 69.2835 21.2452 69.0828C20.8438 68.882 20.3504 68.7817 19.7649 68.7817C19.2213 68.7817 18.7237 68.882 18.2721 69.0828C17.8288 69.2751 17.4483 69.5469 17.1305 69.8982C16.8211 70.2411 16.5827 70.6425 16.4154 71.1025C16.2565 71.5541 16.1771 72.0308 16.1771 72.5326C16.1771 73.0093 16.2775 73.4316 16.4782 73.7996C16.6872 74.1676 16.9925 74.452 17.3939 74.6527C17.7954 74.8534 18.2888 74.9537 18.8742 74.9537ZM30.1541 76.2584L31.6344 68.8569H28.724L29 67.477H36.4391L36.1631 68.8569H33.2527L31.785 76.2584H30.1541ZM39.3863 76.2584L41.1425 67.477H42.4849L46.4867 74.2889L45.9723 74.2261L47.3146 67.477H48.9329L47.1766 76.2584H45.8343L41.8451 69.4466L42.3594 69.5093L41.0046 76.2584H39.3863ZM55.5307 71.1276H59.9089L59.6454 72.4699H55.2673L55.5307 71.1276ZM54.9035 74.891H59.8712L59.5953 76.2584H53.0092L54.7655 67.477H61.1759L60.8999 68.8444H56.1078L54.9035 74.891ZM66.6616 76.2584L68.1419 68.8569H65.2315L65.5075 67.477H72.9466L72.6706 68.8569H69.7602L68.2925 76.2584H66.6616Z" fill="white"/>
<path d="M4.29135 60.7136L10.4352 29.7623H17.3326L15.5938 38.5724L14.9562 36.0221C16.3859 33.5105 18.202 31.7909 20.4046 30.8636C22.6071 29.8975 25.2926 29.4145 28.4612 29.4145L27.1281 36.3119C26.8189 36.2346 26.5291 36.196 26.2587 36.196C25.9882 36.1573 25.679 36.138 25.3313 36.138C22.5105 36.138 20.1727 36.8915 18.318 38.3985C16.4632 39.8669 15.2267 42.224 14.6084 45.4698L11.5365 60.7136H4.29135ZM43.3663 61.1193C40.3523 61.1193 37.7054 60.559 35.4256 59.4384C33.1844 58.2792 31.4456 56.6949 30.2091 54.6856C28.9726 52.6377 28.3543 50.2419 28.3543 47.4984C28.3543 44.0208 29.1465 40.9295 30.7307 38.2246C32.315 35.4811 34.4789 33.3366 37.2224 31.7909C40.0045 30.2067 43.1731 29.4145 46.728 29.4145C49.7806 29.4145 52.4275 29.9748 54.6687 31.0954C56.9485 32.1773 58.7067 33.7423 59.9432 35.7903C61.1797 37.7996 61.7979 40.1953 61.7979 42.9775C61.7979 46.4165 61.0058 49.5078 59.4215 52.2513C57.8373 54.9947 55.6541 57.1586 52.8719 58.7429C50.1284 60.3272 46.9599 61.1193 43.3663 61.1193ZM43.83 54.9175C45.9166 54.9175 47.752 54.4345 49.3363 53.4684C50.9206 52.4638 52.1764 51.092 53.1038 49.3532C54.0311 47.6144 54.4948 45.605 54.4948 43.3252C54.4948 40.9295 53.78 39.0361 52.3503 37.645C50.9206 36.254 48.9112 35.5584 46.3223 35.5584C44.2743 35.5584 42.4389 36.0607 40.816 37.0654C39.2317 38.0314 37.9759 39.3839 37.0485 41.1227C36.1211 42.8615 35.6574 44.8709 35.6574 47.1507C35.6574 49.585 36.3723 51.4978 37.802 52.8888C39.2317 54.2413 41.241 54.9175 43.83 54.9175ZM80.7241 61.1193C77.7101 61.1193 75.0632 60.559 72.7834 59.4384C70.5422 58.2792 68.8034 56.6949 67.5669 54.6856C66.3304 52.6377 65.7121 50.2419 65.7121 47.4984C65.7121 44.0208 66.5043 40.9295 68.0885 38.2246C69.6728 35.4811 71.8367 33.3366 74.5802 31.7909C77.3623 30.2067 80.5309 29.4145 84.0858 29.4145C87.1385 29.4145 89.7854 29.9748 92.0265 31.0954C94.3063 32.1773 96.0645 33.7423 97.301 35.7903C98.5375 37.7996 99.1558 40.1953 99.1558 42.9775C99.1558 46.4165 98.3636 49.5078 96.7794 52.2513C95.1951 54.9947 93.0119 57.1586 90.2297 58.7429C87.4862 60.3272 84.3177 61.1193 80.7241 61.1193ZM81.1878 54.9175C83.2744 54.9175 85.1098 54.4345 86.6941 53.4684C88.2784 52.4638 89.5342 51.092 90.4616 49.3532C91.389 47.6144 91.8527 45.605 91.8527 43.3252C91.8527 40.9295 91.1378 39.0361 89.7081 37.645C88.2784 36.254 86.2691 35.5584 83.6801 35.5584C81.6322 35.5584 79.7967 36.0607 78.1738 37.0654C76.5895 38.0314 75.3337 39.3839 74.4063 41.1227C73.4789 42.8615 73.0153 44.8709 73.0153 47.1507C73.0153 49.585 73.7301 51.4978 75.1598 52.8888C76.5895 54.2413 78.5989 54.9175 81.1878 54.9175ZM97.4142 60.7136L114.803 42.8036L113.991 46.5711L104.543 29.7623H112.078L118.918 42.166L115.556 42.108L127.38 29.7623H135.495L118.86 47.0347L119.439 43.0354L129.467 60.7136H121.816L114.687 47.7882H117.99L105.761 60.7136H97.4142Z" fill="white"/>
</svg>
